<svg className='aspect-[400/187]' viewBox="0 0 400 187" fill="none"
  xmlns="http://www.w3.org/2000/svg">
  <g clip-path="url(#clip0_446_183)">
    <path opacity="0.5" d="M80.6215 0V93.0793L161.207 139.614V46.5352L80.6215 0Z" fill="#88CFDA" />
    <path
      d="M59.6555 70.7342L20.9658 93.0793V127.515L-0.00012207 139.614V46.5352L20.9658 34.4446V68.8803L59.6555 46.5352V12.0995L80.6214 0V93.0793L59.6555 105.17V70.7342Z"
      fill="#34B595" />
    <path
      d="M161.207 115.415L131.375 132.638V87.9565L161.207 70.7342V46.5352L80.6215 93.0793V117.269L110.454 100.047V144.737L80.6215 161.96V186.15L161.207 139.614V115.415Z"
      fill="#34B595" />
    <path opacity="0.4"
      d="M-0.00012207 139.614L80.6214 93.0791L161.207 139.614L80.6214 186.149L-0.00012207 139.614Z"
      fill="#88CFDA" />
    <path
      d="M183.839 53.2522H197.38V43.123H199.7V66.6324H197.38V55.2494H183.839V66.6324H181.519V43.123H183.839V53.2522Z"
      fill="#34B595" />
    <path
      d="M207.751 64.6263H221.731V66.6324H205.432V43.123H221.23V45.1292H207.751V53.5657H219.072V55.5718H207.751V64.6353V64.6263Z"
      fill="#34B595" />
    <path
      d="M227.723 57.8556V66.6324H225.403V43.123H233.715C238.891 43.123 242.026 46.2935 242.026 50.4938C242.026 53.6284 240.36 56.0465 237.575 57.1749L243.441 66.6414H240.647L235.38 57.7392C234.852 57.8287 234.288 57.8646 233.688 57.8646H227.732L227.723 57.8556ZM233.706 55.8495C237.404 55.8495 239.697 53.5926 239.697 50.4848C239.697 47.3771 237.404 45.1202 233.706 45.1202H227.714V55.8405H233.706V55.8495Z"
      fill="#34B595" />
    <path d="M248.501 66.6324H246.181V43.123H248.501V66.6324Z" fill="#34B595" />
    <path
      d="M260.287 45.1292H252.038V43.123H270.846V45.1292H262.598V66.6324H260.278V45.1292H260.287Z"
      fill="#34B595" />
    <path
      d="M286.277 60.3006H274.581L271.948 66.6324H269.601L279.668 43.123H281.235L291.301 66.6324H288.955L286.286 60.3006H286.277ZM275.431 58.2944H285.435L280.447 46.3472L275.431 58.2944Z"
      fill="#34B595" />
    <path
      d="M304.798 54.0314H315.769C315.796 54.1209 315.796 54.506 315.796 54.8195C315.859 61.9663 311.757 67.2683 304.449 67.2683C297.866 67.2683 292.851 62.2529 292.851 54.8822C292.851 47.5114 297.866 42.4961 304.449 42.4961C308.622 42.4961 312.133 44.5022 314.166 47.798L312.249 49.025C310.619 46.168 307.7 44.5112 304.44 44.5112C299.263 44.5112 295.188 48.6488 295.188 54.8911C295.188 61.1334 299.263 65.2711 304.44 65.2711C310.118 65.2711 313.315 61.3484 313.503 56.0196H304.789V54.0403L304.798 54.0314Z"
      fill="#34B595" />
    <path
      d="M321.474 64.6263H335.454V66.6324H319.154V43.123H334.953V45.1292H321.474V53.5657H332.794V55.5718H321.474V64.6353V64.6263Z"
      fill="#34B595" />
    <path d="M183.839 105.143H181.519V81.6338H183.839V105.143Z" fill="#34B595" />
    <path
      d="M192.866 86.8014L191.828 84.9206L191.89 87.088V105.143H189.571V81.6338H191.953L204.115 99.5367L205.494 101.829L205.432 99.0084V81.6427H207.751V105.152H205.369L192.858 86.8103L192.866 86.8014Z"
      fill="#34B595" />
    <path
      d="M215.812 105.143H213.492V81.6338H229.013V83.6399H215.812V92.6048H226.818V94.611H215.812V105.143Z"
      fill="#34B595" />
    <path
      d="M242.106 81.0068C248.689 81.0068 253.704 86.0222 253.704 93.3929C253.704 100.764 248.689 105.779 242.106 105.779C235.524 105.779 230.508 100.764 230.508 93.3929C230.508 86.0222 235.524 81.0068 242.106 81.0068ZM242.106 83.013C236.93 83.013 232.828 87.1506 232.828 93.3929C232.828 99.6352 236.939 103.773 242.106 103.773C247.274 103.773 251.385 99.6352 251.385 93.3929C251.385 87.1506 247.274 83.013 242.106 83.013Z"
      fill="#34B595" />
    <path
      d="M260.197 96.3663V105.143H257.878V81.6338H266.189C271.365 81.6338 274.5 84.8042 274.5 89.0045C274.5 92.1391 272.834 94.5572 270.049 95.6857L275.915 105.152H273.121L267.855 96.2499C267.326 96.3395 266.762 96.3753 266.162 96.3753H260.206L260.197 96.3663ZM266.18 94.3602C269.879 94.3602 272.172 92.1033 272.172 88.9956C272.172 85.8879 269.879 83.631 266.18 83.631H260.188V94.3512H266.18V94.3602Z"
      fill="#34B595" />
    <path
      d="M281.79 87.276L280.912 85.4222L280.975 87.3656V105.143H278.656V81.6338H281.074L289.636 97.4321L290.361 98.9367L291.077 97.4321L299.639 81.6338H302.057V105.143H299.738V87.3656L299.801 85.4222L298.923 87.276L291.086 101.695H289.644L281.808 87.276H281.79Z"
      fill="#34B595" />
    <path
      d="M321.85 98.8113H310.154L307.521 105.143H305.174L315.241 81.6338H316.808L326.874 105.143H324.519L321.859 98.8113H321.85ZM311.005 96.8052H321.008L316.02 84.8579L311.005 96.8052Z"
      fill="#34B595" />
    <path
      d="M333.86 83.6399H325.612V81.6338H344.419V83.6399H336.171V105.143H333.851V83.6399H333.86Z"
      fill="#34B595" />
    <path d="M350.285 105.143H347.966V81.6338H350.285V105.143Z" fill="#34B595" />
    <path
      d="M366.048 81.0068C372.63 81.0068 377.646 86.0222 377.646 93.3929C377.646 100.764 372.63 105.779 366.048 105.779C359.465 105.779 354.45 100.764 354.45 93.3929C354.45 86.0222 359.465 81.0068 366.048 81.0068ZM366.048 83.013C360.871 83.013 356.769 87.1506 356.769 93.3929C356.769 99.6352 360.88 103.773 366.048 103.773C371.215 103.773 375.326 99.6352 375.326 93.3929C375.326 87.1506 371.215 83.013 366.048 83.013Z"
      fill="#34B595" />
    <path
      d="M385.106 86.8014L384.067 84.9206L384.13 87.088V105.143H381.81V81.6338H384.193L396.355 99.5367L397.734 101.829L397.671 99.0084V81.6427H399.991V105.152H397.609L385.097 86.8103L385.106 86.8014Z"
      fill="#34B595" />
    <path d="M183.454 141.648H194.693V143.654H181.528V120.145H183.463V141.648H183.454Z"
      fill="#34B595" />
    <path
      d="M214.316 137.322H202.261L199.548 143.654H197.121L207.492 120.145H209.104L219.475 143.654H217.048L214.298 137.322H214.316ZM203.13 135.316H213.438L208.298 123.369L203.13 135.316Z"
      fill="#34B595" />
    <path
      d="M221.803 120.145H229.362C233.222 120.145 235.595 122.813 235.595 126.038C235.595 128.357 234.324 129.898 233.168 130.614C234.879 131.331 237.252 133.122 237.252 136.821C237.252 140.519 234.467 143.654 230.186 143.654H221.794V120.145H221.803ZM223.845 122.151V129.96H229.362C231.932 129.96 233.553 128.205 233.553 126.038C233.553 123.87 231.923 122.151 229.362 122.151H223.845ZM223.845 131.966V141.657H230.195C233.204 141.657 235.219 139.427 235.219 136.829C235.219 134.232 233.204 131.966 230.195 131.966H223.845Z"
      fill="#34B595" />
  </g>
  <defs>
    <clipPath id="clip0_446_183">
      <rect width="400" height="186.15" fill="white" />
    </clipPath>
  </defs>
</svg>