<svg className='aspect-[500/110]' viewBox="0 0 500 110" fill="none"
  xmlns="http://www.w3.org/2000/svg">
  <path d="M106.707 37.0082V15.6335H65.2013V11.9239H110.436V37.0082H106.707Z" fill="#D7000F" />
  <path d="M85.4154 55.6271V43.7916H89.1437V55.6271H85.4154Z" fill="#D7000F" />
  <path d="M110.436 53.8959V75.5002H106.707V57.2523H65.2013V53.8959H110.436Z" fill="#D7000F" />
  <path d="M65.2013 45.4521V41.7424H110.577V45.4521H65.2013Z" fill="#D7000F" />
  <path
    d="M229.406 38.651V11.7119H274.623V38.651H229.406ZM233.134 34.9414H270.912V15.4392H233.134V34.9414Z"
    fill="#D7000F" />
  <path d="M229.406 48.3315V44.6218H274.782V48.3315H229.406Z" fill="#D7000F" />
  <path d="M250.239 58.1355V46.2823H253.967V58.1355H250.239Z" fill="#D7000F" />
  <path d="M233.293 71.8259V58.1355H229.565V75.5532H274.782V71.8259H233.293Z" fill="#D7000F" />
  <path d="M178.005 38.6687V11.7119H221.366V15.4392H181.715V34.9414H221.366V38.6687H178.005Z"
    fill="#D7000F" />
  <path d="M179.736 27.0451V23.3355H221.243V27.0451H179.736Z" fill="#D7000F" />
  <path d="M177.104 48.3315V44.6218H222.479V48.3315H177.104Z" fill="#D7000F" />
  <path d="M198.625 45.5404V36.9199H202.354V45.5404H198.625Z" fill="#D7000F" />
  <path
    d="M182.263 62.2691C182.263 52.5181 190.161 44.6218 199.915 44.6218C209.669 44.6218 217.567 52.5181 217.567 62.2691C217.567 72.0026 209.669 79.9165 199.915 79.9165C190.161 79.9165 182.263 72.0202 182.263 62.2691ZM185.991 62.2691C185.991 69.9534 192.229 76.1892 199.933 76.2068C207.619 76.2068 213.857 69.9711 213.874 62.2691C213.874 54.5672 207.637 48.3491 199.933 48.3315C192.229 48.3315 186.009 54.5672 185.991 62.2691Z"
    fill="#D7000F" />
  <path d="M16.2561 68.7875V51.9175H19.7901V68.7875H16.2561Z" fill="#D7000F" />
  <path d="M16.2561 65.8198H49.2278V69.3352H16.2561V65.8198Z" fill="#D7000F" />
  <path d="M16.2561 14.079V0H19.9845V14.079H16.2561Z" fill="#D7000F" />
  <path d="M0 15.6335V11.9239H37.0004V15.6335H0Z" fill="#D7000F" />
  <path
    d="M0.477082 29.8892C0.477082 20.1204 8.37545 12.2242 18.1115 12.2242C27.8651 12.2242 35.7635 20.1204 35.7635 29.8715C35.7635 39.6226 27.8651 47.5189 18.1115 47.5189C8.35778 47.5189 0.459413 39.6226 0.459413 29.8715H0.477082V29.8892ZM4.18772 29.8892C4.18772 37.5735 10.4251 43.8092 18.1291 43.8269C25.8331 43.8269 32.0529 37.5911 32.0705 29.8892C32.0529 22.1872 25.8331 15.9692 18.1291 15.9515C10.4428 15.9515 4.20539 22.1872 4.18772 29.8892Z"
    fill="#D7000F" />
  <path d="M45.5349 46.3353V11.9239H58.8402V15.6335H49.2455V46.3353H45.5349Z" fill="#D7000F" />
  <path d="M412.871 13.5137V2.98539H416.599V13.5137H412.871Z" fill="#D7000F" />
  <path d="M396.614 15.3862V11.6589H433.633V15.3862H396.614Z" fill="#D7000F" />
  <path
    d="M397.074 29.6242C397.074 19.8731 404.972 11.9769 414.726 11.9769C424.48 11.9769 432.378 19.8731 432.378 29.6242C432.378 39.3753 424.48 47.2716 414.726 47.2716C404.972 47.2716 397.074 39.3753 397.074 29.6242ZM400.785 29.6242C400.785 37.3085 407.04 43.5442 414.726 43.5619C422.412 43.5619 428.65 37.3262 428.667 29.6242C428.667 21.9399 422.43 15.7042 414.726 15.6865C407.04 15.6865 400.802 21.9223 400.785 29.6242Z"
    fill="#D7000F" />
  <path d="M442.132 46.141V11.7119H455.455V15.4392L445.86 15.4216V46.141H442.132Z" fill="#D7000F" />
  <path d="M405.237 54.5849V50.8752H445.807V54.5849H405.237Z" fill="#D7000F" />
  <path d="M442.132 76.0302V53.048H445.86V76.0302H442.132Z" fill="#D7000F" />
  <path d="M496.289 15.4392H460.508V11.7296H500V45.3814H496.289V15.4392Z" fill="#D7000F" />
  <path d="M459.43 55.3268V51.6171H500V55.3268H459.43Z" fill="#D7000F" />
  <path d="M471.675 53.7369V28.1934H475.386V53.7369H471.675Z" fill="#D7000F" />
  <path d="M483.284 53.7369V28.1934H486.995V53.7369H483.284Z" fill="#D7000F" />
  <path d="M133.883 75.6416V57.9942H137.612V71.9319H169.788V75.6416H133.883Z" fill="#D7000F" />
  <path d="M166.873 48.2961V15.6335H157.278V11.9239H170.601V48.2961H166.873Z" fill="#D7000F" />
  <path d="M117.044 15.6335V11.9239H148.903V15.6335H117.044Z" fill="#D7000F" />
  <path
    d="M132.982 19.9791L118.705 48.2961L115.383 46.6356L132.982 11.7119L150.564 46.6356L147.242 48.2961L132.982 19.9791Z"
    fill="#D7000F" />
  <path
    d="M346.114 54.6555V11.7119L371.364 11.7296V15.4392H349.825V50.9459H371.364V54.6555H346.114Z"
    fill="#D7000F" />
  <path d="M388.893 55.2208V15.4392H383.592V55.2208H379.881V11.7119H392.603V55.2208H388.893Z"
    fill="#D7000F" />
  <path d="M281.761 57.111V53.4013H318.938V57.111H281.761Z" fill="#D7000F" />
  <path d="M298.194 13.4607V4.6459H301.905V13.4607H298.194Z" fill="#D7000F" />
  <path d="M298.194 53.8606V44.8868H301.905V53.8606H298.194Z" fill="#D7000F" />
  <path d="M281.938 15.4392V11.7119H318.938V15.4392H281.938Z" fill="#D7000F" />
  <path
    d="M282.397 29.5536C282.397 19.8025 290.296 11.9062 300.049 11.9062C309.803 11.9062 317.702 19.8025 317.702 29.5536C317.702 39.287 309.803 47.2009 300.049 47.2009C290.296 47.2009 282.397 39.287 282.397 29.5536ZM286.108 29.5536C286.126 37.2378 292.345 43.4736 300.049 43.4912C307.736 43.4912 313.973 37.2555 313.991 29.5536C313.973 21.8693 307.736 15.6335 300.049 15.6159C292.345 15.6159 286.126 21.8516 286.108 29.5536Z"
    fill="#D7000F" />
  <path d="M327.455 11.7119H340.778V15.4392H331.184V66.968H327.455V11.7119Z" fill="#D7000F" />
  <path
    d="M13.0756 109.7L8.2871 101.203L5.40693 104.701V109.7H2.82715V92.4763H5.40693V101.132L12.3865 92.4763H15.5494L10.0187 99.2243L16.1325 109.7H13.0756Z"
    fill="#624D40" />
  <path
    d="M28.837 108.004C27.6708 109.187 26.1512 109.841 24.3312 109.841C22.5112 109.841 21.027 109.187 19.8431 108.004C18.1645 106.308 18.1998 104.4 18.1998 101.079C18.1998 97.7581 18.1645 95.8503 19.8431 94.1722C21.0093 92.9886 22.5112 92.335 24.3312 92.335C26.1512 92.335 27.6531 92.9886 28.837 94.1722C30.5156 95.868 30.4626 97.7758 30.4626 101.079C30.4626 104.383 30.5156 106.308 28.837 108.004ZM26.8756 95.7443C26.2749 95.0907 25.3384 94.6844 24.3312 94.6844C23.324 94.6844 22.3875 95.0907 21.7868 95.7443C20.9563 96.6629 20.7796 97.6345 20.7796 101.079C20.7796 104.524 20.9386 105.513 21.7868 106.432C22.3875 107.085 23.324 107.492 24.3312 107.492C25.3384 107.492 26.2749 107.068 26.8756 106.432C27.7061 105.513 27.8828 104.542 27.8828 101.079C27.8828 97.6168 27.7061 96.6629 26.8756 95.7443Z"
    fill="#624D40" />
  <path
    d="M44.1743 109.7L40.5873 102.439H37.3538V109.7H34.774V92.4763H41.3825C44.616 92.4763 46.6657 94.5785 46.6657 97.5108C46.6657 99.9839 45.1815 101.538 43.2731 102.086L47.1958 109.7H44.1743ZM41.1881 94.8258H37.3538V100.214H41.1881C42.9021 100.214 44.0683 99.2243 44.0683 97.5285C44.0683 95.8327 42.9021 94.8081 41.1881 94.8081V94.8258Z"
    fill="#624D40" />
  <path
    d="M50.9241 92.4763H61.8087V94.8258H53.5039V99.8603H60.5895V102.192H53.5039V107.368H61.8087V109.717H50.9241V92.4763Z"
    fill="#624D40" />
  <path
    d="M75.6264 109.7L74.4602 106.237H67.728L66.5618 109.7H63.8054L70.0604 92.4763H72.1455L78.4005 109.7H75.6264ZM71.156 96.3803L68.5055 104.029H73.7357L71.156 96.3803Z"
    fill="#624D40" />
  <path
    d="M97.9609 109.7L90.0802 97.5992V109.7H87.5004V92.4763H89.8682L97.7489 104.559V92.4763H100.329V109.7H97.9609Z"
    fill="#624D40" />
  <path
    d="M115.065 109.7L113.881 106.237H107.149L105.983 109.7H103.226L109.482 92.4763H111.567L117.804 109.7H115.048H115.065ZM110.595 96.3803L107.944 104.029H113.175L110.595 96.3803Z"
    fill="#624D40" />
  <path d="M125.049 94.8258V109.7H122.469V94.8258H117.769V92.4763H129.731V94.8258H125.031H125.049Z"
    fill="#624D40" />
  <path d="M133.159 109.7V92.4763H135.739V109.7H133.159Z" fill="#624D40" />
  <path
    d="M150.687 108.004C149.521 109.187 148.002 109.841 146.182 109.841C144.362 109.841 142.877 109.187 141.711 108.004C140.033 106.308 140.05 104.4 140.05 101.079C140.05 97.7581 140.015 95.8503 141.711 94.1722C142.877 92.9886 144.362 92.335 146.182 92.335C148.002 92.335 149.521 92.9886 150.687 94.1722C152.366 95.868 152.313 97.7758 152.313 101.079C152.313 104.383 152.366 106.308 150.687 108.004ZM148.726 95.7443C148.125 95.0907 147.189 94.6844 146.182 94.6844C145.174 94.6844 144.256 95.0907 143.637 95.7443C142.807 96.6629 142.63 97.6345 142.63 101.079C142.63 104.524 142.807 105.513 143.637 106.432C144.238 107.085 145.174 107.492 146.182 107.492C147.189 107.492 148.125 107.068 148.726 106.432C149.556 105.513 149.733 104.542 149.733 101.079C149.733 97.6168 149.574 96.6629 148.726 95.7443Z"
    fill="#624D40" />
  <path
    d="M167.085 109.7L159.204 97.5992V109.7H156.624V92.4763H158.992L166.873 104.559V92.4763H169.453V109.7H167.085Z"
    fill="#624D40" />
  <path
    d="M184.171 109.7L183.005 106.237H176.273L175.089 109.7H172.333L178.588 92.4763H180.673L186.928 109.7H184.171ZM179.701 96.3803L177.051 104.029H182.281L179.701 96.3803Z"
    fill="#624D40" />
  <path d="M189.826 109.7V92.4763H192.423V107.35H200.64V109.7H189.826Z" fill="#624D40" />
  <path
    d="M216.118 109.841C212.655 109.841 210.022 107.456 210.022 103.888V92.4763H212.602V103.764C212.602 106.061 213.998 107.492 216.118 107.492C218.239 107.492 219.67 106.061 219.67 103.764V92.4763H222.25V103.888C222.25 107.439 219.599 109.841 216.118 109.841Z"
    fill="#624D40" />
  <path
    d="M237.375 109.7L229.512 97.5992V109.7H226.932V92.4763H229.3L237.181 104.559V92.4763H239.76V109.7H237.375Z"
    fill="#624D40" />
  <path d="M244.673 109.7V92.4763H247.252V109.7H244.673Z" fill="#624D40" />
  <path
    d="M257.695 109.7H255.681L250.079 92.4763H252.765L256.688 105.001L260.611 92.4763H263.349L257.695 109.7Z"
    fill="#624D40" />
  <path
    d="M266.177 92.4763H277.061V94.8258H268.756V99.8603H275.842V102.192H268.756V107.368H277.061V109.717H266.177V92.4763Z"
    fill="#624D40" />
  <path
    d="M290.49 109.7L286.903 102.439H283.67V109.7H281.09V92.4763H287.698C290.932 92.4763 292.982 94.5785 292.982 97.5108C292.982 99.9839 291.497 101.538 289.589 102.086L293.512 109.7H290.49ZM287.504 94.8258H283.67V100.214H287.504C289.236 100.214 290.402 99.2243 290.402 97.5285C290.402 95.8327 289.218 94.8081 287.504 94.8081V94.8258Z"
    fill="#624D40" />
  <path
    d="M301.763 109.841C299.201 109.841 297.364 109.24 295.738 107.58L297.47 105.849C298.707 107.103 300.085 107.492 301.834 107.492C304.061 107.492 305.35 106.52 305.35 104.859C305.35 104.118 305.138 103.482 304.679 103.075C304.255 102.651 303.813 102.492 302.806 102.351L300.792 102.051C299.413 101.856 298.3 101.379 297.558 100.673C296.728 99.878 296.303 98.7827 296.303 97.3872C296.303 94.4018 298.459 92.335 301.993 92.335C304.237 92.335 305.827 92.9179 307.294 94.2958L305.633 95.9387C304.573 94.9141 303.354 94.5961 301.922 94.5961C299.908 94.5961 298.813 95.762 298.813 97.2812C298.813 97.9171 299.007 98.4648 299.466 98.871C299.89 99.2597 300.58 99.5423 301.375 99.666L303.318 99.9486C304.909 100.196 305.792 100.585 306.517 101.238C307.453 102.051 307.895 103.287 307.895 104.753C307.895 107.933 305.333 109.806 301.763 109.806V109.841Z"
    fill="#624D40" />
  <path d="M311.853 109.7V92.4763H314.45V109.7H311.853Z" fill="#624D40" />
  <path d="M325.14 94.8258V109.7H322.561V94.8258H317.861V92.4763H329.841V94.8258H325.14Z"
    fill="#624D40" />
  <path
    d="M338.834 102.616V109.7H336.255V102.616L331.148 92.4763H333.975L337.545 100.055L341.114 92.4763H343.941L338.834 102.616Z"
    fill="#624D40" />
  <path
    d="M362.989 108.004C361.805 109.187 360.303 109.841 358.483 109.841C356.663 109.841 355.179 109.187 353.995 108.004C352.334 106.308 352.352 104.4 352.352 101.079C352.352 97.7581 352.334 95.8503 353.995 94.1722C355.161 92.9886 356.663 92.335 358.483 92.335C360.303 92.335 361.805 92.9886 362.989 94.1722C364.668 95.868 364.615 97.7758 364.615 101.079C364.615 104.383 364.65 106.308 362.989 108.004ZM361.028 95.7443C360.427 95.0907 359.49 94.6844 358.483 94.6844C357.476 94.6844 356.54 95.0907 355.939 95.7443C355.108 96.6629 354.932 97.6345 354.932 101.079C354.932 104.524 355.091 105.513 355.939 106.432C356.54 107.085 357.476 107.492 358.483 107.492C359.49 107.492 360.427 107.068 361.028 106.432C361.858 105.513 362.035 104.542 362.035 101.079C362.035 97.6168 361.858 96.6629 361.028 95.7443Z"
    fill="#624D40" />
  <path
    d="M371.506 94.8258V100.072H378.591V102.422H371.506V109.7H368.926V92.4763H379.828V94.8258H371.506Z"
    fill="#624D40" />
  <path
    d="M398.753 109.841V102.316H391.826V109.841H389.246V92.6176H391.826V99.9663H398.753V92.6176H401.35V109.841H398.753Z"
    fill="#624D40" />
  <path
    d="M406.28 109.841V92.6176H417.164V94.9671H408.86V99.9839H415.945V102.316H408.86V107.492H417.164V109.841H406.28Z"
    fill="#624D40" />
  <path
    d="M430.593 109.841L427.006 102.581H423.773V109.841H421.193V92.6176H427.802C431.035 92.6176 433.085 94.7198 433.085 97.6345C433.085 100.108 431.6 101.68 429.692 102.21L433.615 109.823H430.593V109.841ZM427.607 94.9671H423.773V100.355H427.607C429.321 100.355 430.505 99.3657 430.505 97.6698C430.505 95.974 429.321 94.9671 427.607 94.9671Z"
    fill="#624D40" />
  <path d="M437.343 109.841V92.6176H439.923V109.841H437.343Z" fill="#624D40" />
  <path d="M450.631 94.9671V109.841H448.051V94.9671H443.351V92.6176H455.331V94.9671H450.631Z"
    fill="#624D40" />
  <path
    d="M467.099 109.841L465.933 106.379H459.201L458.034 109.841H455.278L461.533 92.6176H463.618L469.873 109.841H467.099ZM462.629 96.5216L459.978 104.171H465.226L462.629 96.5216Z"
    fill="#624D40" />
  <path
    d="M482.719 108.039C481.429 109.417 479.821 110 478.019 110C476.217 110 474.732 109.346 473.548 108.163C471.87 106.467 471.887 104.559 471.887 101.238C471.887 97.9171 471.87 96.0093 473.548 94.3311C474.715 93.1476 476.199 92.494 478.019 92.494C481.623 92.494 483.744 94.8788 484.221 97.8288H481.624C481.199 95.9563 479.945 94.8258 478.019 94.8258C477.012 94.8258 476.111 95.232 475.51 95.8857C474.679 96.8042 474.485 97.7581 474.485 101.22C474.485 104.683 474.679 105.672 475.51 106.591C476.111 107.244 477.012 107.633 478.019 107.633C479.15 107.633 480.139 107.191 480.811 106.432C481.429 105.707 481.676 104.824 481.676 103.729V102.757H478.037V100.532H484.274V103.164C484.274 105.389 483.868 106.803 482.737 108.022L482.719 108.039Z"
    fill="#624D40" />
  <path
    d="M488.532 109.841V92.6176H499.417V94.9671H491.112V99.9839H498.198V102.316H491.112V107.492H499.417V109.841H488.532Z"
    fill="#624D40" />
</svg>